<svg width="26" height="25" viewBox="0 0 26 25" fill="none" xmlns="http://www.w3.org/2000/svg">
<g clip-path="url(#clip0_1_131)">
<path fill-rule="evenodd" clip-rule="evenodd" d="M12.9582 2.08331C18.7113 2.08331 23.3748 6.74686 23.3748 12.5C23.3748 18.2531 18.7113 22.9166 12.9582 22.9166C7.20505 22.9166 2.5415 18.2531 2.5415 12.5C2.5415 6.74686 7.20505 2.08331 12.9582 2.08331ZM15.8748 14.4344C15.0969 15.1992 14.0491 15.6269 12.9582 15.625C11.8672 15.6269 10.8194 15.1992 10.0415 14.4344C9.94432 14.3363 9.82862 14.2586 9.70112 14.2056C9.57363 14.1527 9.43689 14.1256 9.29884 14.126C9.1608 14.1264 9.0242 14.1542 8.897 14.2079C8.7698 14.2615 8.65453 14.3399 8.55789 14.4384C8.46125 14.537 8.38516 14.6538 8.33406 14.7821C8.28295 14.9103 8.25785 15.0474 8.2602 15.1854C8.26255 15.3235 8.29232 15.4596 8.34776 15.5861C8.40321 15.7125 8.48323 15.8266 8.58317 15.9219C9.7505 17.0685 11.3219 17.7101 12.9582 17.7083C14.5945 17.7101 16.1658 17.0685 17.3332 15.9219C17.5259 15.7275 17.6343 15.4651 17.635 15.1914C17.6358 14.9177 17.5288 14.6547 17.3372 14.4593C17.1456 14.2638 16.8848 14.1517 16.6111 14.147C16.3375 14.1423 16.073 14.2456 15.8748 14.4344ZM9.31234 8.33331C8.89794 8.33331 8.50051 8.49793 8.20748 8.79096C7.91446 9.08398 7.74984 9.48141 7.74984 9.89581C7.74984 10.3102 7.91446 10.7076 8.20748 11.0007C8.50051 11.2937 8.89794 11.4583 9.31234 11.4583C9.72674 11.4583 10.1242 11.2937 10.4172 11.0007C10.7102 10.7076 10.8748 10.3102 10.8748 9.89581C10.8748 9.48141 10.7102 9.08398 10.4172 8.79096C10.1242 8.49793 9.72674 8.33331 9.31234 8.33331ZM16.604 8.33331C16.1896 8.33331 15.7922 8.49793 15.4992 8.79096C15.2061 9.08398 15.0415 9.48141 15.0415 9.89581C15.0415 10.3102 15.2061 10.7076 15.4992 11.0007C15.7922 11.2937 16.1896 11.4583 16.604 11.4583C17.0184 11.4583 17.4158 11.2937 17.7089 11.0007C18.0019 10.7076 18.1665 10.3102 18.1665 9.89581C18.1665 9.48141 18.0019 9.08398 17.7089 8.79096C17.4158 8.49793 17.0184 8.33331 16.604 8.33331Z" fill="#F2F2F2"/>
</g>
<defs>
<clipPath id="clip0_1_131">
<rect width="25" height="25" fill="white" transform="translate(0.458252)"/>
</clipPath>
</defs>
</svg>
