<svg width="33" height="33" viewBox="0 0 33 33" fill="none" xmlns="http://www.w3.org/2000/svg">
<path d="M31.9882 6.63138C31.493 5.35025 30.779 4.1893 29.8861 3.21353C28.9925 2.23484 27.9389 1.45709 26.7827 0.922575C25.5837 0.366114 24.2978 0.0812851 22.9995 0.0846237C21.1781 0.0846237 19.401 0.641882 17.8567 1.69448C17.4873 1.94628 17.1363 2.22284 16.8038 2.52418C16.4713 2.22284 16.1203 1.94628 15.7509 1.69448C14.2066 0.641882 12.4295 0.0846237 10.6081 0.0846237C9.29655 0.0846237 8.02564 0.365317 6.82492 0.922575C5.66484 1.45919 4.6193 2.2311 3.72153 3.21353C2.82745 4.1882 2.11323 5.34942 1.61935 6.63138C1.10582 7.96467 0.843506 9.38052 0.843506 10.8376C0.843506 12.2122 1.09473 13.6446 1.59349 15.1017C2.01097 16.3194 2.60948 17.5825 3.37425 18.858C4.58605 20.8765 6.25227 22.9817 8.3212 25.1158C11.7497 28.6534 15.145 31.0971 15.2891 31.1961L16.1647 31.8236C16.5526 32.1001 17.0513 32.1001 17.4393 31.8236L18.3149 31.1961C18.4589 31.0929 21.8505 28.6534 25.2827 25.1158C27.3516 22.9817 29.0179 20.8765 30.2297 18.858C30.9944 17.5825 31.5966 16.3194 32.0104 15.1017C32.5092 13.6446 32.7604 12.2122 32.7604 10.8376C32.7641 9.38052 32.5018 7.96467 31.9882 6.63138ZM16.8038 28.5585C16.8038 28.5585 3.65134 19.1429 3.65134 10.8376C3.65134 6.63137 6.76581 3.22178 10.6081 3.22178C13.3088 3.22178 15.6511 4.90594 16.8038 7.36613C17.9565 4.90594 20.2988 3.22178 22.9995 3.22178C26.8418 3.22178 29.9563 6.63137 29.9563 10.8376C29.9563 19.1429 16.8038 28.5585 16.8038 28.5585Z" fill="#DB0031"/>
</svg>
