<svg width="40" height="40" viewBox="0 0 40 40" fill="none" xmlns="http://www.w3.org/2000/svg">
<g clip-path="url(#clip0_520_101)">
<path d="M39.3973 19.6875L22.1473 2.44644L20.991 1.29019C20.7276 1.02847 20.3713 0.881592 20 0.881592C19.6286 0.881592 19.2724 1.02847 19.0089 1.29019L0.602654 19.6875C0.332704 19.9564 0.119358 20.2767 -0.0247915 20.6294C-0.168941 20.9821 -0.240971 21.3601 -0.236631 21.7411C-0.218774 23.3125 1.08926 24.567 2.66069 24.567H4.55801V39.1072H35.4419V24.567H37.3794C38.1428 24.567 38.8616 24.2679 39.4018 23.7277C39.6677 23.4626 39.8785 23.1473 40.0218 22.8002C40.1651 22.453 40.2381 22.0809 40.2366 21.7054C40.2366 20.9464 39.9375 20.2277 39.3973 19.6875ZM22.5 35.8929H17.5V26.7857H22.5V35.8929ZM32.2277 21.3527V35.8929H25.3571V25.7143C25.3571 24.7277 24.558 23.9286 23.5714 23.9286H16.4285C15.4419 23.9286 14.6428 24.7277 14.6428 25.7143V35.8929H7.7723V21.3527H3.48658L20.0044 4.84822L21.0357 5.87947L36.5178 21.3527H32.2277Z" fill="#F4F4F4"/>
</g>
<defs>
<clipPath id="clip0_520_101">
<rect width="40" height="40" fill="white"/>
</clipPath>
</defs>
</svg>
