<svg width="33" height="33" viewBox="0 0 33 33" fill="none" xmlns="http://www.w3.org/2000/svg">
<path d="M31.1153 16.901C31.7855 16.0404 32.1566 14.986 32.1566 13.8889C32.1566 12.1483 31.1552 10.5008 29.5434 9.58209C29.1284 9.3456 28.656 9.22114 28.1749 9.22157H18.6078L18.8472 4.45733C18.903 3.30601 18.4841 2.21283 17.6703 1.37938C17.2708 0.968578 16.789 0.641729 16.2544 0.419032C15.7198 0.196335 15.144 0.0825207 14.5623 0.0846233C12.4877 0.0846233 10.6525 1.4414 10.102 3.38354L6.67487 15.4395H1.5163C0.810139 15.4395 0.239624 15.9938 0.239624 16.68V30.7905C0.239624 31.4767 0.810139 32.031 1.5163 32.031H25.5059C25.8729 32.031 26.232 31.9612 26.5631 31.8217C28.4622 31.0347 29.687 29.2321 29.687 27.2319C29.687 26.7434 29.6152 26.2627 29.4715 25.7976C30.1418 24.937 30.5128 23.8826 30.5128 22.7855C30.5128 22.2971 30.441 21.8164 30.2974 21.3512C30.9677 20.4906 31.3387 19.4362 31.3387 18.3391C31.3307 17.8507 31.2589 17.3661 31.1153 16.901ZM3.11215 29.2399V18.2306H6.34374V29.2399H3.11215ZM28.5021 15.5558L27.6283 16.2923L28.1829 17.277C28.3656 17.6013 28.4603 17.9655 28.4582 18.3353C28.4582 18.9749 28.1709 19.5835 27.6762 20.0022L26.8025 20.7387L27.357 21.7233C27.5397 22.0477 27.6345 22.4119 27.6323 22.7816C27.6323 23.4213 27.3451 24.0299 26.8504 24.4485L25.9766 25.1851L26.5312 26.1697C26.7139 26.494 26.8086 26.8582 26.8065 27.228C26.8065 28.0963 26.2798 28.8794 25.466 29.236H8.89709V18.1065L12.8668 4.13171C12.9691 3.77352 13.1889 3.45751 13.4927 3.23157C13.7965 3.00562 14.1678 2.88206 14.5504 2.87959C14.8536 2.87959 15.1528 2.96487 15.3922 3.13932C15.7872 3.42618 15.9986 3.86035 15.9747 4.32166L15.5917 12.0127H28.135C28.8452 12.4352 29.284 13.1485 29.284 13.8889C29.284 14.5285 28.9968 15.1333 28.5021 15.5558Z" fill="#F4F4F4"/>
</svg>
