<svg width="26" height="25" viewBox="0 0 26 25" fill="none" xmlns="http://www.w3.org/2000/svg">
<path d="M18.625 7.29169H14.4583V9.37502H18.625C20.3438 9.37502 21.75 10.7813 21.75 12.5C21.75 14.2188 20.3438 15.625 18.625 15.625H14.4583V17.7084H18.625C21.5 17.7084 23.8333 15.375 23.8333 12.5C23.8333 9.62502 21.5 7.29169 18.625 7.29169ZM12.375 15.625H8.20833C6.48958 15.625 5.08333 14.2188 5.08333 12.5C5.08333 10.7813 6.48958 9.37502 8.20833 9.37502H12.375V7.29169H8.20833C5.33333 7.29169 3 9.62502 3 12.5C3 15.375 5.33333 17.7084 8.20833 17.7084H12.375V15.625ZM9.25 11.4584H17.5833V13.5417H9.25V11.4584Z" fill="#F2F2F2"/>
</svg>
