<svg width="293" height="304" viewBox="0 0 293 304" fill="none" xmlns="http://www.w3.org/2000/svg">
<path fill-rule="evenodd" clip-rule="evenodd" d="M288.207 120.605C289.931 127.049 291.252 133.607 291.996 140.23C293.533 153.461 293.344 166.894 291.16 179.998C290.073 186.55 288.547 193.019 286.591 199.353C284.594 205.671 282.165 211.845 279.336 217.822C276.513 223.799 273.287 229.587 269.613 235.07C265.932 240.548 261.887 245.765 257.524 250.691C261.663 245.576 265.455 240.196 268.863 234.594C272.316 229.019 275.326 223.184 277.918 217.181C280.515 211.181 282.705 205.012 284.463 198.728C286.178 192.433 287.462 186.03 288.312 179.578C288.549 177.86 288.747 176.136 288.918 174.41C288.197 178.884 287.281 183.322 286.155 187.701C288.312 177.915 289.444 167.916 289.544 157.924C289.168 139.182 285.065 120.56 277.497 103.491C272.795 93.0241 266.808 83.1378 259.732 74.1212C261.553 76.5829 263.287 79.1077 264.929 81.6929C268.224 86.9158 271.163 92.3541 273.723 97.9606C276.244 103.588 278.376 109.376 280.107 115.277C283.644 127.065 285.262 139.36 285.297 151.595C284.307 127.146 276.689 103.044 262.998 82.9487C256.3 72.8234 248.132 63.7017 238.943 55.8174C229.749 47.9253 219.412 41.415 208.439 36.3576C186.422 26.4189 161.689 22.4833 137.776 25.72C113.869 28.8306 90.9282 38.7458 72.2447 53.9258C53.4771 68.9955 38.9987 89.3617 31.1701 112.134C30.8444 113.036 30.5616 113.953 30.2786 114.87C30.1179 115.391 29.9572 115.911 29.7885 116.43C29.3307 117.864 28.8754 119.296 28.5281 120.762L27.3992 125.134L26.4834 129.556L26.0308 131.768L25.6887 133.998L25.0203 138.464C24.938 139.402 24.8401 140.338 24.7421 141.274C24.5267 143.332 24.3113 145.391 24.2624 147.463C23.5993 159.49 24.715 171.604 27.3597 183.379C32.7068 206.943 44.88 228.938 61.9162 246.238C66.166 250.57 70.6632 254.687 75.5077 258.371C77.1535 259.719 78.8955 260.933 80.6388 262.149C81.3929 262.675 82.1473 263.201 82.8943 263.738C83.6711 264.219 84.4418 264.712 85.2128 265.205C87.009 266.353 88.807 267.503 90.6887 268.512C101.265 274.599 112.762 279.06 124.635 282.092C100.575 277.208 78.0208 265.062 60.2978 247.856C42.6249 230.59 29.7859 208.322 23.8572 184.212C17.7864 160.121 19.0363 134.287 26.9702 110.7C34.9252 87.076 49.914 65.9506 69.2896 50.2792C87.3678 35.6824 109.248 25.8146 132.187 22.0419C114.369 24.2435 96.9779 29.871 81.3365 38.7195C80.4273 39.2138 79.542 39.7526 78.6569 40.2913C78.1637 40.5914 77.6706 40.8915 77.1735 41.1838C75.7867 42.0088 74.4025 42.8337 73.0815 43.7637L69.0659 46.4671L65.1871 49.3623L63.2503 50.8152L61.3899 52.3626L57.6742 55.4706C56.9468 56.1586 56.208 56.8351 55.4691 57.5118C53.8263 59.0161 52.1832 60.5207 50.664 62.1516C41.5696 71.3285 33.8515 81.8426 27.6044 93.1712C15.1812 115.886 9.21567 142.135 10.4998 168.134C10.713 172.49 11.1024 176.848 11.7024 181.178C14.6707 196.728 20.2363 211.811 28.1623 225.567C31.4095 231.221 34.9699 236.72 39.0118 241.859C40.3644 243.712 41.8542 245.454 43.345 247.198C43.9802 247.94 44.6155 248.683 45.2405 249.435C45.9192 250.147 46.5881 250.868 47.2571 251.59C48.8139 253.269 50.3712 254.949 52.0534 256.505C61.4004 265.695 72.15 273.435 83.6758 279.79C65.1897 270.703 48.8825 257.259 36.0883 240.997C36.8619 242.053 37.6514 243.096 38.4934 244.1C46.9694 254.874 57.0348 264.382 68.1554 272.458C90.4729 288.534 117.374 298.31 144.994 300.427C151.897 300.966 158.852 301.134 165.78 300.669C168.207 300.592 170.618 300.33 173.03 300.069C174.073 299.956 175.116 299.842 176.162 299.744C177.187 299.577 178.216 299.423 179.245 299.27C181.656 298.912 184.069 298.552 186.448 298.007C193.292 296.707 200 294.744 206.592 292.467L211.521 290.688C212.577 290.278 213.619 289.836 214.662 289.395C215.228 289.155 215.794 288.916 216.363 288.681L218.781 287.664L221.149 286.534L225.881 284.257C201.645 298.388 173.08 305.101 144.784 303.853C116.482 302.524 88.4362 293.221 65.0003 276.932C41.4433 260.803 22.8309 237.634 11.6893 211.301C0.544965 184.916 -2.61543 155.331 2.14227 127.128C6.95787 98.9222 19.6705 72.0825 38.6829 50.6602C43.4669 45.3348 48.6062 40.3431 54.0428 35.6956C54.926 34.9449 55.8357 34.2262 56.7447 33.508C57.2387 33.1178 57.7324 32.7277 58.2216 32.3327L60.3189 30.6644L62.4925 29.0934L66.8555 25.9775L71.3658 23.0823C83.4311 15.4056 96.6727 9.67035 110.377 5.72952C117.246 3.80114 124.245 2.36931 131.3 1.39724C138.358 0.43305 145.479 -0.089766 152.591 0.0126955C166.809 0.15982 181.006 2.15125 194.59 6.19979C201.379 8.22538 208.021 10.7055 214.46 13.6164C220.878 16.572 227.086 19.9612 233.028 23.747C238.972 27.5275 244.661 31.7048 249.967 36.313C255.264 40.9316 260.235 45.897 264.853 51.1594C259.971 46.1361 254.772 41.4439 249.288 37.1326C243.84 32.7741 238.062 28.8438 232.051 25.3364C226.046 21.8239 219.81 18.7185 213.4 16.0545C206.968 13.4351 200.371 11.2519 193.666 9.52322C166.87 2.44024 138.255 3.05764 111.93 10.9997C85.6573 19.0784 61.6188 34.3373 43.7038 55.0608C37.9724 61.6131 32.8489 68.6803 28.3702 76.1363C28.4537 76.0071 28.5346 75.8763 28.6155 75.7455C28.7155 75.5839 28.8154 75.4224 28.9201 75.2641C43.6011 52.896 64.9003 35.023 89.273 24.0018C113.659 12.9938 141.116 8.81124 167.659 12.3081C174.288 13.2171 180.848 14.578 187.295 16.3461C188.33 16.6334 189.355 16.9576 190.38 17.2817C190.949 17.4615 191.517 17.6413 192.087 17.8147L194.479 18.5635L196.834 19.4226L201.534 21.1644L206.139 23.1348C218.405 28.4392 229.786 35.6772 240.017 44.2104C250.174 52.8382 259.192 62.7979 266.579 73.8533C269.41 78.0962 272.024 82.481 274.405 86.9867C277.108 91.7446 279.555 96.647 281.715 101.668C284.318 107.826 286.473 114.163 288.207 120.605ZM227.065 106.518H76.5943V68.962H189.448C209.892 68.962 226.536 85.2639 227.054 105.543C227.065 105.874 227.065 106.19 227.065 106.518ZM95.404 237.968V125.3H133.021V200.412C133.021 221.149 116.177 237.968 95.404 237.968ZM170.638 237.968V125.3H208.255V200.412C208.255 221.149 191.411 237.968 170.638 237.968Z" fill="url(#paint0_linear_520_32)"/>
<defs>
<linearGradient id="paint0_linear_520_32" x1="1.66935e-05" y1="135.636" x2="293" y2="135.636" gradientUnits="userSpaceOnUse">
<stop stop-color="#F4F4F4" stop-opacity="0.86"/>
<stop offset="1" stop-color="#F4F4F4"/>
</linearGradient>
</defs>
</svg>
