<svg width="40" height="40" viewBox="0 0 40 40" fill="none" xmlns="http://www.w3.org/2000/svg">
<g clip-path="url(#clip0_520_105)">
<path d="M22.7232 15.9375C21.692 15.9375 20.8929 16.7366 20.8929 17.7232C20.8929 18.7098 21.692 19.5089 22.7232 19.5089C23.6652 19.5089 24.4643 18.7098 24.4643 17.7232C24.4643 16.7366 23.6652 15.9375 22.7232 15.9375ZM10.2232 15.9375C9.19199 15.9375 8.39288 16.7366 8.39288 17.7232C8.39288 18.7098 9.19199 19.5089 10.2232 19.5089C11.1652 19.5089 11.9643 18.7098 11.9643 17.7232C11.9643 16.7366 11.1652 15.9375 10.2232 15.9375Z" fill="#F4F4F4"/>
<path d="M37.0536 12.5446C34.9881 9.70151 32.0099 7.65298 28.6161 6.74106V6.74552C27.8527 5.89731 26.9911 5.11606 26.0268 4.41963C18.7188 -0.89287 8.45984 0.727666 3.12501 8.0357C-1.17409 13.9732 -0.991057 21.9598 3.39287 27.6339L3.42859 33.5536C3.42859 33.6964 3.45091 33.8393 3.49555 33.9732C3.5517 34.1521 3.64258 34.3182 3.76297 34.4619C3.88336 34.6056 4.03092 34.7242 4.19719 34.8109C4.36346 34.8975 4.54518 34.9506 4.73197 34.9669C4.91875 34.9833 5.10692 34.9627 5.28573 34.9062L10.9375 33.125C12.4331 33.6562 13.9777 33.9598 15.5134 34.0446L15.4911 34.0625C19.4688 36.9598 24.6831 37.8303 29.4643 36.25L35.1384 38.0982C35.2813 38.1428 35.4286 38.1696 35.5804 38.1696C36.3706 38.1696 37.0089 37.5312 37.0089 36.7411V30.7589C40.942 25.4196 41.0447 18.0402 37.0536 12.5446ZM11.5625 29.9553L11.0268 29.7321L6.60716 31.1161L6.56251 26.4732L6.20537 26.0714C2.42859 21.4643 2.17859 14.8259 5.7143 9.95534C10.0179 4.05356 18.2679 2.74999 24.1518 7.00892C30.0536 11.2991 31.3616 19.5357 27.0982 25.4018C23.5223 30.308 17.1206 32.1205 11.5625 29.9553ZM34.1072 29.1964L33.75 29.6428L33.7947 34.2857L29.4197 32.8125L28.8839 33.0357C26.3839 33.9643 23.7188 34.0402 21.25 33.3482L21.2411 33.3437C24.6341 32.3032 27.5979 30.19 29.6875 27.3214C33.0982 22.6205 33.6518 16.7143 31.6697 11.6786L31.6964 11.6964C32.7232 12.433 33.6652 13.3527 34.4643 14.4643C37.7054 18.9107 37.5223 24.9643 34.1072 29.1964Z" fill="#F4F4F4"/>
<path d="M16.4732 15.9375C15.442 15.9375 14.6429 16.7366 14.6429 17.7232C14.6429 18.7098 15.442 19.5089 16.4732 19.5089C17.4152 19.5089 18.2143 18.7098 18.2143 17.7232C18.2143 16.7366 17.4152 15.9375 16.4732 15.9375Z" fill="#F4F4F4"/>
</g>
<defs>
<clipPath id="clip0_520_105">
<rect width="40" height="40" fill="white"/>
</clipPath>
</defs>
</svg>
