<svg width="40" height="40" viewBox="0 0 40 40" fill="none" xmlns="http://www.w3.org/2000/svg">
<path d="M33.5714 31.4286H32.5V16.25C32.5 9.9509 27.8438 4.74554 21.7857 3.87947V2.14286C21.7857 1.15625 20.9866 0.357147 20 0.357147C19.0134 0.357147 18.2143 1.15625 18.2143 2.14286V3.87947C12.1563 4.74554 7.5 9.9509 7.5 16.25V31.4286H6.42857C5.63839 31.4286 5 32.067 5 32.8572V34.2857C5 34.4822 5.16071 34.6429 5.35714 34.6429H15C15 37.4018 17.2411 39.6429 20 39.6429C22.7589 39.6429 25 37.4018 25 34.6429H34.6429C34.8393 34.6429 35 34.4822 35 34.2857V32.8572C35 32.067 34.3616 31.4286 33.5714 31.4286ZM20 36.7857C18.817 36.7857 17.8571 35.8259 17.8571 34.6429H22.1429C22.1429 35.8259 21.183 36.7857 20 36.7857ZM10.7143 31.4286V16.25C10.7143 13.7679 11.6786 11.4375 13.433 9.68304C15.1875 7.92858 17.5179 6.96429 20 6.96429C22.4821 6.96429 24.8125 7.92858 26.567 9.68304C28.3214 11.4375 29.2857 13.7679 29.2857 16.25V31.4286H10.7143Z" fill="#F4F4F4"/>
</svg>
