<svg width="31" height="30" viewBox="0 0 31 30" fill="none" xmlns="http://www.w3.org/2000/svg">
<path d="M30.7973 27.0729L20.8284 17.6538C22.3754 15.7641 23.2122 13.4538 23.2122 11.0237C23.2122 8.1149 22.0107 5.38744 19.8381 3.33097C17.6654 1.27449 14.7711 0.142883 11.6964 0.142883C8.62169 0.142883 5.72738 1.27812 3.55473 3.33097C1.37825 5.38382 0.180603 8.1149 0.180603 11.0237C0.180603 13.9289 1.38209 16.6636 3.55473 18.7165C5.72738 20.7729 8.61785 21.9045 11.6964 21.9045C14.2683 21.9045 16.7096 21.1139 18.7095 19.6558L28.6784 29.0714C28.7076 29.099 28.7423 29.1209 28.7805 29.1359C28.8187 29.1509 28.8597 29.1586 28.901 29.1586C28.9424 29.1586 28.9833 29.1509 29.0215 29.1359C29.0597 29.1209 29.0944 29.099 29.1237 29.0714L30.7973 27.4937C30.8265 27.466 30.8497 27.4332 30.8656 27.3972C30.8814 27.3611 30.8896 27.3224 30.8896 27.2833C30.8896 27.2442 30.8814 27.2055 30.8656 27.1694C30.8497 27.1333 30.8265 27.1006 30.7973 27.0729ZM17.7768 16.7688C16.1492 18.303 13.9919 19.1481 11.6964 19.1481C9.40093 19.1481 7.24363 18.303 5.61607 16.7688C3.99234 15.231 3.09794 13.1926 3.09794 11.0237C3.09794 8.8548 3.99234 6.81283 5.61607 5.27863C7.24363 3.74444 9.40093 2.89936 11.6964 2.89936C13.9919 2.89936 16.153 3.74081 17.7768 5.27863C19.4005 6.81646 20.2949 8.8548 20.2949 11.0237C20.2949 13.1926 19.4005 15.2346 17.7768 16.7688Z" fill="#F4F4F4"/>
</svg>
